{
    "asset" : {
        "generator" : "Khronos glTF Blender I/O v1.8.19",
        "version" : "2.0"
    },
    "scene" : 0,
    "scenes" : [
        {
            "name" : "Scene",
            "nodes" : [
                0
            ]
        }
    ],
    "nodes" : [
        {
            "mesh" : 0,
            "name" : "Trumpet",
            "rotation" : [
                0.7071068286895752,
                0.7071068286895752,
                0,
                -3.090862321641907e-08
            ],
            "scale" : [
                0.03652104362845421,
                0.03652104362845421,
                0.03652104362845421
            ],
            "translation" : [
                0,
                2.072131633758545,
                0.8651010394096375
            ]
        }
    ],
    "materials" : [
        {
            "doubleSided" : true,
            "emissiveFactor" : [
                1,
                0.8677263855934143,
                0.10644602030515671
            ],
            "name" : "Trumpet",
            "pbrMetallicRoughness" : {}
        },
        {
            "doubleSided" : true,
            "emissiveFactor" : [
                0.6038162708282471,
                0.3789519965648651,
                0.03204590454697609
            ],
            "name" : "Trumpet.001",
            "pbrMetallicRoughness" : {}
        }
    ],
    "meshes" : [
        {
            "name" : "Trumpet",
            "primitives" : [
                {
                    "attributes" : {
                        "POSITION" : 0,
                        "NORMAL" : 1,
                        "TEXCOORD_0" : 2
                    },
                    "indices" : 3,
                    "material" : 0
                },
                {
                    "attributes" : {
                        "POSITION" : 4,
                        "NORMAL" : 5,
                        "TEXCOORD_0" : 6
                    },
                    "indices" : 7,
                    "material" : 1
                }
            ]
        }
    ],
    "accessors" : [
        {
            "bufferView" : 0,
            "componentType" : 5126,
            "count" : 630,
            "max" : [
                5.575737476348877,
                1.9499119520187378,
                -0.3678293228149414
            ],
            "min" : [
                -8.82694149017334,
                -9.186272621154785,
                -30.40203857421875
            ],
            "type" : "VEC3"
        },
        {
            "bufferView" : 1,
            "componentType" : 5126,
            "count" : 630,
            "type" : "VEC3"
        },
        {
            "bufferView" : 2,
            "componentType" : 5126,
            "count" : 630,
            "type" : "VEC2"
        },
        {
            "bufferView" : 3,
            "componentType" : 5123,
            "count" : 3042,
            "type" : "SCALAR"
        },
        {
            "bufferView" : 4,
            "componentType" : 5126,
            "count" : 112,
            "max" : [
                4.917470455169678,
                0.850920557975769,
                2.2862091064453125
            ],
            "min" : [
                -4.519200801849365,
                -8.535126686096191,
                -30.1846981048584
            ],
            "type" : "VEC3"
        },
        {
            "bufferView" : 5,
            "componentType" : 5126,
            "count" : 112,
            "type" : "VEC3"
        },
        {
            "bufferView" : 6,
            "componentType" : 5126,
            "count" : 112,
            "type" : "VEC2"
        },
        {
            "bufferView" : 7,
            "componentType" : 5123,
            "count" : 390,
            "type" : "SCALAR"
        }
    ],
    "bufferViews" : [
        {
            "buffer" : 0,
            "byteLength" : 7560,
            "byteOffset" : 0
        },
        {
            "buffer" : 0,
            "byteLength" : 7560,
            "byteOffset" : 7560
        },
        {
            "buffer" : 0,
            "byteLength" : 5040,
            "byteOffset" : 15120
        },
        {
            "buffer" : 0,
            "byteLength" : 6084,
            "byteOffset" : 20160
        },
        {
            "buffer" : 0,
            "byteLength" : 1344,
            "byteOffset" : 26244
        },
        {
            "buffer" : 0,
            "byteLength" : 1344,
            "byteOffset" : 27588
        },
        {
            "buffer" : 0,
            "byteLength" : 896,
            "byteOffset" : 28932
        },
        {
            "buffer" : 0,
            "byteLength" : 780,
            "byteOffset" : 29828
        }
    ],
    "buffers" : [
        {
            "byteLength" : 30608,
            "uri" : "data:application/octet-stream;base64,"
        }
    ]
}
