<svg width="1081" height="1046" viewBox="0 0 1081 1046" fill="none" xmlns="http://www.w3.org/2000/svg">
<path d="M643.141 1016.42L643.14 1016.42C600.917 1010.54 560.71 996.705 523.685 975.329C486.659 953.952 454.576 926.048 428.374 892.421L428.373 892.421C410.846 869.924 396.462 845.506 385.373 819.473C366.008 873.875 321.131 918.217 261.229 934.268C164.464 960.196 64.6804 902.585 38.7523 805.82L37.9321 802.759C15.7606 720.014 54.6765 635.104 126.892 596C122.046 585.943 118.069 575.302 115.08 564.149L114.671 562.623C88.7431 465.858 146.353 366.074 243.118 340.145C251.364 337.936 259.634 336.334 267.883 335.311C265.012 252.708 319.23 175.856 402.424 153.564C438.931 143.782 475.881 145.911 509.109 157.524C527.474 100.95 573.211 54.3992 634.916 37.8654C731.681 11.9373 831.465 69.5476 857.393 166.313L857.802 167.839C879.407 248.469 843.009 331.196 774.287 371.543C801.835 378.972 828.294 389.968 853.306 404.403L853.308 404.404C890.333 425.781 922.417 453.685 948.618 487.312L948.619 487.312C975.771 522.162 995.381 561.626 1006.88 604.555C1018.39 647.484 1021.14 691.465 1015.05 735.222L1015.05 735.224C1009.17 777.436 995.335 817.652 973.958 854.678C952.582 891.703 924.678 923.787 891.051 949.989L891.05 949.989C856.2 977.141 816.737 996.751 773.808 1008.25C730.879 1019.76 686.897 1022.51 643.141 1016.42Z" fill="#F1F2F2" stroke="black" stroke-width="31.6141"/>
<path d="M650.348 925.388C782.944 947.792 908.597 858.464 931.002 725.867C953.407 593.271 864.078 467.618 731.482 445.213C598.885 422.808 473.232 512.137 450.827 644.733C428.423 777.33 517.751 902.983 650.348 925.388Z" fill="#FF645D" stroke="#C24A45" stroke-width="7.36881"/>
<mask id="mask0_306_93" style="mask-type:alpha" maskUnits="userSpaceOnUse" x="443" y="438" width="495" height="495">
<path d="M650.34 925.388C782.936 947.792 908.59 858.464 930.994 725.867C953.399 593.271 864.07 467.618 731.474 445.213C598.877 422.808 473.224 512.137 450.82 644.733C428.415 777.33 517.743 902.983 650.34 925.388Z" fill="#58C5B7" stroke="black" stroke-width="6.95541"/>
</mask>
<g mask="url(#mask0_306_93)">
<g style="mix-blend-mode:multiply" opacity="0.3">
<circle r="375.706" transform="matrix(-0.258819 -0.965926 -0.965926 0.258819 909.357 1025.78)" fill="#FF645D"/>
</g>
</g>
<path d="M714.955 618.755L638.362 612.915C620.69 611.569 603.209 617.294 589.761 628.836C576.314 640.377 567.999 656.791 566.653 674.464C565.307 692.136 571.031 709.617 582.573 723.065C594.114 736.512 610.528 744.827 628.201 746.173C633.744 746.597 638.893 749.202 642.515 753.421C646.137 757.639 647.93 763.125 647.507 768.668C647.083 774.212 644.479 779.361 640.26 782.982C636.041 786.604 630.555 788.398 625.012 787.974C596.252 785.781 569.548 772.256 550.763 750.371C531.978 728.486 522.658 700.034 524.852 671.282C527.046 642.522 540.571 615.818 562.456 597.033C584.341 578.248 612.792 568.928 641.545 571.122L642.529 571.196L642.603 570.211L645.106 537.389C645.252 535.413 645.98 533.534 647.2 531.97C648.421 530.413 650.071 529.25 651.953 528.638C653.835 528.018 655.852 527.979 657.756 528.508C659.66 529.045 661.363 530.129 662.649 531.629L723.293 602.281C724.587 603.78 725.399 605.629 725.635 607.591C725.872 609.553 725.525 611.548 724.627 613.306C723.737 615.07 722.333 616.528 720.614 617.495C718.888 618.462 716.916 618.895 714.946 618.741L714.955 618.755Z" fill="url(#paint0_linear_306_93)" stroke="url(#paint1_linear_306_93)" stroke-width="1.57298"/>
<path d="M682.903 750.349L759.496 756.188C777.168 757.534 794.65 751.809 808.097 740.268C821.544 728.727 829.86 712.313 831.206 694.64C832.552 676.967 826.827 659.486 815.285 646.039C803.744 632.592 787.33 624.276 769.658 622.93C764.114 622.506 758.965 619.902 755.344 615.683C751.722 611.464 749.928 605.979 750.352 600.442C750.776 594.899 753.38 589.75 757.599 586.128C761.818 582.506 767.304 580.713 772.847 581.136C801.607 583.33 828.311 596.855 847.096 618.74C865.874 640.626 875.201 669.076 873.007 697.829C870.813 726.588 857.288 753.293 835.403 772.078C813.518 790.863 785.066 800.182 756.314 797.988L755.33 797.915L755.256 798.9L752.753 831.722C752.606 833.691 751.871 835.571 750.65 837.127C749.429 838.684 747.779 839.839 745.896 840.452C744.654 840.867 743.343 841.02 742.038 840.919C740.732 840.818 739.453 840.468 738.282 839.877C737.111 839.285 736.064 838.472 735.209 837.474L674.565 766.823C673.271 765.323 672.459 763.474 672.223 761.512C671.986 759.551 672.333 757.555 673.231 755.798C674.121 754.034 675.526 752.575 677.244 751.609C678.97 750.642 680.942 750.209 682.912 750.363L682.903 750.349Z" fill="url(#paint2_linear_306_93)" stroke="url(#paint3_linear_306_93)" stroke-width="1.57298"/>
<path d="M232.936 649.808L234.578 650.085C294.122 660.146 334.24 716.578 324.179 776.122C314.118 835.665 257.686 875.783 198.143 865.722L196.5 865.445C136.957 855.384 96.8384 798.952 106.899 739.408C116.96 679.865 173.392 639.747 232.936 649.808Z" fill="#FF645D"/>
<mask id="mask1_306_93" style="mask-type:alpha" maskUnits="userSpaceOnUse" x="105" y="648" width="221" height="220">
<path d="M232.936 649.808L234.578 650.086C294.122 660.147 334.24 716.579 324.179 776.122C314.118 835.666 257.686 875.784 198.143 865.723L196.5 865.445C136.957 855.384 96.8384 798.952 106.899 739.409C116.96 679.866 173.392 639.747 232.936 649.808Z" fill="#58C5B7"/>
</mask>
<g mask="url(#mask1_306_93)">
<g style="mix-blend-mode:multiply" opacity="0.3">
<circle r="409.45" transform="matrix(-0.258819 -0.965926 -0.965926 0.258819 377.801 1147.53)" fill="#FF645D"/>
</g>
</g>
<path d="M232.312 653.499L233.955 653.777C291.459 663.493 330.204 717.993 320.488 775.498C310.771 833.003 256.271 871.747 198.766 862.031L197.124 861.753C139.619 852.037 100.874 797.537 110.591 740.032C120.307 682.527 174.807 643.783 232.312 653.499Z" fill="#FF645D" stroke="#C24A45" stroke-width="7.48756"/>
<mask id="mask2_306_93" style="mask-type:alpha" maskUnits="userSpaceOnUse" x="105" y="648" width="221" height="220">
<path d="M232.936 649.808L234.578 650.086C294.122 660.147 334.24 716.579 324.179 776.122C314.118 835.666 257.686 875.784 198.143 865.723L196.5 865.445C136.957 855.384 96.8384 798.952 106.899 739.409C116.96 679.866 173.392 639.747 232.936 649.808Z" fill="#58C5B7"/>
</mask>
<g mask="url(#mask2_306_93)">
<g style="mix-blend-mode:multiply" opacity="0.3">
<circle r="409.45" transform="matrix(-0.258819 -0.965926 -0.965926 0.258819 377.801 1147.53)" fill="#FF645D"/>
</g>
</g>
<path d="M215.32 685.979C201.121 685.979 187.241 690.181 175.429 698.071C163.627 705.961 154.417 717.164 148.989 730.286C143.551 743.399 142.128 757.841 144.899 771.768C147.669 785.694 154.502 798.489 164.544 808.522C174.587 818.565 187.372 825.397 201.299 828.168C215.226 830.938 229.658 829.516 242.78 824.087C255.893 818.659 267.115 809.449 274.996 797.647C282.886 785.844 287.097 771.964 287.097 757.766C287.097 748.341 285.244 739.009 281.641 730.296C278.038 721.582 272.749 713.673 266.085 707.009C259.421 700.345 251.503 695.057 242.799 691.444C234.085 687.841 224.754 685.979 215.329 685.979L215.32 685.979ZM255.781 753.114L223.219 753.114C222.686 753.114 222.18 753.32 221.806 753.694C221.431 754.069 221.225 754.574 221.225 755.108C221.225 755.641 221.441 756.147 221.806 756.521C222.18 756.895 222.686 757.101 223.219 757.101L235.311 757.101C240.543 757.101 245.569 759.095 249.379 762.679C253.188 766.264 255.481 771.169 255.79 776.391L255.79 778.843C255.491 783.869 253.357 788.605 249.791 792.162C246.225 795.718 241.479 797.834 236.453 798.114C231.427 798.395 226.476 796.814 222.536 793.678C218.595 790.543 215.947 786.069 215.095 781.108C215.095 781.033 215.067 780.959 215.011 780.902C214.955 780.846 214.88 780.818 214.805 780.818C214.73 780.818 214.655 780.846 214.599 780.902C214.543 780.959 214.515 781.033 214.515 781.108C213.691 785.872 211.211 790.196 207.514 793.313C203.817 796.43 199.128 798.133 194.298 798.133L174.859 798.133L174.859 762.427L207.607 762.427C207.748 762.445 207.879 762.445 208.019 762.427C208.553 762.371 209.03 762.109 209.367 761.687C209.704 761.276 209.854 760.742 209.798 760.218C209.741 759.684 209.479 759.198 209.058 758.87C208.637 758.543 208.113 758.383 207.589 758.44L195.524 758.44C192.829 758.44 190.161 757.916 187.672 756.877C185.182 755.847 182.917 754.331 181.017 752.431C179.108 750.522 177.601 748.266 176.571 745.776C175.542 743.287 175.018 740.619 175.018 737.924C175.018 732.486 177.18 727.273 181.026 723.426C184.873 719.579 190.086 717.417 195.524 717.417L255.79 717.417L255.79 753.114L255.781 753.114Z" fill="url(#paint4_linear_306_93)"/>
<path d="M699.73 105.999L701.373 106.276C758.877 115.993 797.622 170.493 787.906 227.998C778.189 285.502 723.689 324.247 666.184 314.53L664.542 314.253C607.037 304.536 568.292 250.036 578.009 192.532C587.725 135.027 642.225 96.2823 699.73 105.999Z" fill="#FF645D" stroke="#C24A45" stroke-width="7.48756"/>
<mask id="mask3_306_93" style="mask-type:alpha" maskUnits="userSpaceOnUse" x="572" y="100" width="222" height="220">
<path d="M700.354 102.307L701.996 102.584C761.54 112.645 801.658 169.077 791.597 228.621C781.536 288.164 725.104 328.282 665.561 318.221L663.918 317.944C604.375 307.883 564.256 251.451 574.317 191.907C584.378 132.364 640.81 92.2458 700.354 102.307Z" fill="#58C5B7"/>
</mask>
<g mask="url(#mask3_306_93)">
<g style="mix-blend-mode:multiply" opacity="0.3">
<circle r="409.45" transform="matrix(-0.258819 -0.965926 -0.965926 0.258819 845.219 600.032)" fill="#FF645D"/>
</g>
</g>
<path d="M683.14 137.988C668.942 137.988 655.061 142.191 643.25 150.081C631.447 157.971 622.238 169.174 616.809 182.296C611.371 195.409 609.949 209.85 612.719 223.777C615.49 237.704 622.322 250.499 632.365 260.532C642.407 270.575 655.193 277.407 669.119 280.178C683.046 282.948 697.479 281.525 710.601 276.097C723.723 270.668 734.926 261.459 742.816 249.656C750.706 237.854 754.918 223.974 754.918 209.775C754.918 190.738 747.355 172.478 733.896 159.019C720.437 145.56 702.186 137.998 683.149 137.988L683.14 137.988ZM723.545 250.237L708.102 250.237C703.188 250.237 698.424 248.571 694.568 245.519C690.712 242.468 688.007 238.21 686.874 233.427C686.846 233.296 686.771 233.174 686.668 233.09C686.566 233.006 686.434 232.959 686.303 232.959C686.172 232.959 686.041 233.006 685.938 233.09C685.835 233.174 685.761 233.287 685.733 233.427C684.928 236.871 683.299 240.072 680.978 242.749C678.657 245.426 675.718 247.494 672.423 248.776C669.747 249.815 666.892 250.311 664.018 250.227C658.431 250.077 653.115 247.784 649.165 243.835C645.215 239.885 642.922 234.578 642.754 228.991C642.66 226.117 643.147 223.263 644.204 220.586C644.204 220.539 644.204 220.492 644.204 220.436C645.562 217.113 647.883 214.277 650.868 212.284C653.854 210.3 657.373 209.251 660.967 209.279L683.084 209.279C683.617 209.279 684.123 209.064 684.497 208.699C684.871 208.325 685.077 207.819 685.077 207.286C685.077 206.752 684.871 206.247 684.497 205.873C684.123 205.498 683.617 205.292 683.084 205.292L642.997 205.292C644.036 195.867 648.36 187.116 655.193 180.555C662.025 173.994 670.954 170.035 680.407 169.38C689.86 168.725 699.248 171.411 706.922 176.961C714.597 182.521 720.082 190.589 722.422 199.78C722.993 202.924 723.367 206.107 723.545 209.298L723.545 250.227L723.545 250.237Z" fill="url(#paint5_linear_306_93)"/>
<path d="M466.949 219.595L468.591 219.873C526.096 229.589 564.841 284.09 555.124 341.594C545.408 399.099 490.908 437.844 433.403 428.127L431.76 427.85C374.256 418.133 335.511 363.633 345.227 306.128C354.944 248.624 409.444 209.879 466.949 219.595Z" fill="#FF645D" stroke="#C24A45" stroke-width="7.48756"/>
<mask id="mask4_306_93" style="mask-type:alpha" maskUnits="userSpaceOnUse" x="339" y="214" width="222" height="220">
<path d="M467.572 215.903L469.215 216.181C528.758 226.242 568.877 282.674 558.816 342.217C548.755 401.761 492.323 441.879 432.779 431.818L431.137 431.541C371.593 421.48 331.475 365.047 341.536 305.504C351.597 245.961 408.029 205.843 467.572 215.903Z" fill="#58C5B7"/>
</mask>
<g mask="url(#mask4_306_93)">
<g style="mix-blend-mode:multiply" opacity="0.3">
<circle r="409.45" transform="matrix(-0.258819 -0.965926 -0.965926 0.258819 612.438 713.629)" fill="#FF645D"/>
</g>
</g>
<path d="M450.359 251.585C436.16 251.585 422.28 255.787 410.478 263.677C398.676 271.567 389.466 282.771 384.028 295.893C378.59 309.005 377.168 323.447 379.938 337.374C382.708 351.301 389.541 364.095 399.583 374.129C409.626 384.171 422.411 391.013 436.338 393.784C450.265 396.554 464.697 395.131 477.819 389.703C490.941 384.265 502.145 375.065 510.035 363.262C517.925 351.46 522.137 337.58 522.137 323.382C522.137 313.957 520.283 304.616 516.68 295.911C513.077 287.198 507.788 279.289 501.124 272.625C494.461 265.961 486.542 260.673 477.838 257.06C469.134 253.457 459.793 251.594 450.368 251.594L450.359 251.585ZM490.754 318.88L468.385 318.88C467.852 318.87 467.318 319.048 466.906 319.385C466.485 319.722 466.204 320.19 466.101 320.723C466.045 321.032 466.064 321.36 466.148 321.659C466.232 321.968 466.382 322.249 466.588 322.492C466.794 322.736 467.047 322.932 467.337 323.063C467.627 323.194 467.936 323.269 468.254 323.26L490.754 323.26L490.754 363.777L473.205 363.777C462.264 363.403 452.951 357.122 450.574 347.033C450.536 346.902 450.462 346.79 450.359 346.715C450.256 346.64 450.125 346.593 449.994 346.593C449.863 346.593 449.732 346.64 449.629 346.715C449.526 346.79 449.451 346.911 449.413 347.033C448.29 351.816 445.576 356.074 441.729 359.116C437.882 362.167 433.119 363.824 428.205 363.833L409.963 363.833C410.038 364.151 409.963 323.269 409.963 323.269L430.853 323.269C431.387 323.279 431.902 323.101 432.314 322.773C432.725 322.436 433.006 321.968 433.109 321.454C433.165 321.145 433.147 320.817 433.062 320.508C432.978 320.199 432.828 319.919 432.622 319.675C432.417 319.432 432.164 319.235 431.874 319.104C431.584 318.973 431.265 318.898 430.947 318.898L409.954 318.898L409.954 282.874L428.729 282.874C433.54 283.005 438.173 284.718 441.907 287.759C445.641 290.792 448.262 294.985 449.367 299.665C449.385 299.805 449.46 299.927 449.563 300.02C449.666 300.114 449.806 300.161 449.947 300.161C450.087 300.161 450.218 300.114 450.331 300.02C450.434 299.927 450.508 299.805 450.527 299.665C451.65 294.891 454.365 290.633 458.211 287.582C462.058 284.53 466.822 282.874 471.736 282.874L490.745 282.874L490.745 318.898L490.754 318.88Z" fill="url(#paint6_linear_306_93)"/>
<path d="M304.007 401.164L305.65 401.442C363.155 411.158 401.899 465.658 392.183 523.163C382.466 580.668 327.966 619.412 270.462 609.696L268.819 609.418C211.314 599.702 172.57 545.202 182.286 487.697C192.003 430.193 246.503 391.448 304.007 401.164Z" fill="#FF645D" stroke="#C24A45" stroke-width="7.48756"/>
<mask id="mask5_306_93" style="mask-type:alpha" maskUnits="userSpaceOnUse" x="177" y="395" width="221" height="220">
<path d="M304.631 397.473L306.274 397.75C365.817 407.811 405.935 464.243 395.874 523.787C385.813 583.33 329.381 623.448 269.838 613.387L268.195 613.11C208.652 603.049 168.534 546.617 178.595 487.073C188.656 427.53 245.088 387.412 304.631 397.473Z" fill="#58C5B7"/>
</mask>
<g mask="url(#mask5_306_93)">
<g style="mix-blend-mode:multiply" opacity="0.3">
<circle r="409.45" transform="matrix(-0.258819 -0.965926 -0.965926 0.258819 449.497 895.199)" fill="#FF645D"/>
</g>
</g>
<path d="M287.417 433.154C273.219 433.154 259.339 437.357 247.536 445.247C235.725 453.137 226.524 464.34 221.087 477.462C215.649 490.575 214.226 505.016 216.997 518.943C219.767 532.87 226.599 545.665 236.642 555.698C246.685 565.741 259.47 572.573 273.397 575.344C287.324 578.114 301.756 576.691 314.878 571.263C327.991 565.834 339.203 556.625 347.093 544.822C354.983 533.02 359.195 519.14 359.195 504.942C359.195 485.904 351.633 467.644 338.174 454.185C324.715 440.726 306.454 433.164 287.427 433.154L287.417 433.154ZM311.378 548.978L275.503 548.978L275.503 518.466C275.503 516.454 274.698 514.535 273.275 513.112C271.852 511.69 269.934 510.894 267.921 510.885L256.035 510.885L256.035 480.401L274.473 480.401C280.688 480.401 286.809 481.983 292.247 485.006L296.505 487.673C301.12 491.099 304.863 495.554 307.447 500.692C310.03 505.831 311.368 511.493 311.368 517.24L311.368 548.978L311.378 548.978ZM305.762 487.205C303.169 487.205 300.623 486.447 298.471 485.006C296.309 483.564 294.624 481.524 293.632 479.128C292.64 476.732 292.368 474.093 292.874 471.547C293.379 469.001 294.624 466.661 296.459 464.827C298.293 462.992 300.633 461.738 303.179 461.233C305.724 460.727 308.364 460.989 310.76 461.982C313.156 462.974 315.206 464.658 316.647 466.82C318.088 468.982 318.856 471.519 318.856 474.111C318.837 477.584 317.442 480.897 314.99 483.349C312.529 485.792 309.197 487.168 305.734 487.158L305.771 487.215L305.762 487.205Z" fill="url(#paint7_linear_306_93)"/>
<defs>
<linearGradient id="paint0_linear_306_93" x1="523.771" y1="626.71" x2="619.053" y2="721.993" gradientUnits="userSpaceOnUse">
<stop stop-color="white"/>
<stop offset="0.55" stop-color="white"/>
<stop offset="0.58" stop-color="#F4DAD9"/>
<stop offset="0.68" stop-color="white"/>
<stop offset="1" stop-color="white"/>
</linearGradient>
<linearGradient id="paint1_linear_306_93" x1="634.515" y1="585.623" x2="623.715" y2="727.316" gradientUnits="userSpaceOnUse">
<stop stop-color="white"/>
<stop offset="0.55" stop-color="white"/>
<stop offset="0.58" stop-color="#E9A7A4"/>
<stop offset="0.68" stop-color="white"/>
<stop offset="1" stop-color="white"/>
</linearGradient>
<linearGradient id="paint2_linear_306_93" x1="664.187" y1="672.758" x2="768.873" y2="777.444" gradientUnits="userSpaceOnUse">
<stop stop-color="white"/>
<stop offset="0.55" stop-color="white"/>
<stop offset="0.58" stop-color="#F4DAD9"/>
<stop offset="0.68" stop-color="white"/>
<stop offset="1" stop-color="white"/>
</linearGradient>
<linearGradient id="paint3_linear_306_93" x1="779.671" y1="635.762" x2="768.873" y2="777.444" gradientUnits="userSpaceOnUse">
<stop stop-color="white"/>
<stop offset="0.55" stop-color="white"/>
<stop offset="0.58" stop-color="#E9A7A4"/>
<stop offset="0.68" stop-color="white"/>
<stop offset="1" stop-color="white"/>
</linearGradient>
<linearGradient id="paint4_linear_306_93" x1="273.78" y1="758.107" x2="212.035" y2="799.854" gradientUnits="userSpaceOnUse">
<stop stop-color="white"/>
<stop offset="0.55" stop-color="white"/>
<stop offset="0.58" stop-color="#E9A7A4"/>
<stop offset="0.68" stop-color="white"/>
<stop offset="1" stop-color="white"/>
</linearGradient>
<linearGradient id="paint5_linear_306_93" x1="742.744" y1="200.052" x2="676.383" y2="254.699" gradientUnits="userSpaceOnUse">
<stop stop-color="white"/>
<stop offset="0.55" stop-color="white"/>
<stop offset="0.58" stop-color="#F3BEBC"/>
<stop offset="0.68" stop-color="white"/>
<stop offset="1" stop-color="white"/>
</linearGradient>
<linearGradient id="paint6_linear_306_93" x1="510.551" y1="307.603" x2="444.108" y2="361.081" gradientUnits="userSpaceOnUse">
<stop stop-color="white"/>
<stop offset="0.55" stop-color="white"/>
<stop offset="0.58" stop-color="#F3BEBC"/>
<stop offset="0.68" stop-color="white"/>
<stop offset="1" stop-color="white"/>
</linearGradient>
<linearGradient id="paint7_linear_306_93" x1="342.208" y1="507.401" x2="283.965" y2="546.781" gradientUnits="userSpaceOnUse">
<stop stop-color="white"/>
<stop offset="0.55" stop-color="white"/>
<stop offset="0.58" stop-color="#E9A7A4"/>
<stop offset="0.68" stop-color="white"/>
<stop offset="1" stop-color="white"/>
</linearGradient>
</defs>
</svg>
