<svg width="1080" height="1046" viewBox="0 0 1080 1046" fill="none" xmlns="http://www.w3.org/2000/svg">
<path d="M437.728 1016.42L437.729 1016.42C479.945 1010.54 520.146 996.713 557.166 975.339C594.186 953.966 626.265 926.066 652.462 892.444L652.463 892.444C669.987 869.951 684.369 845.536 695.457 819.508C714.819 873.901 759.689 918.236 819.582 934.284C916.332 960.209 1016.1 902.607 1042.03 805.856L1042.85 802.796C1065.01 720.063 1026.1 635.165 953.899 596.067C958.745 586.012 962.721 575.372 965.709 564.221L966.118 562.695C992.042 465.944 934.441 366.175 837.69 340.251C829.446 338.042 821.177 336.44 812.929 335.417C815.8 252.827 761.589 175.986 678.408 153.697C641.907 143.917 604.962 146.045 571.739 157.656C553.377 101.091 507.647 54.5473 445.951 38.016C349.2 12.0917 249.431 69.6935 223.507 166.444L223.098 167.97C201.496 248.589 237.889 331.303 306.6 371.644C279.057 379.072 252.602 390.066 227.594 404.499L227.592 404.5C190.572 425.873 158.493 453.773 132.295 487.395L132.295 487.396C105.147 522.24 85.5402 561.698 74.0391 604.621C62.538 647.544 59.7894 691.518 65.8775 735.269L65.8779 735.271C71.7571 777.476 85.5854 817.686 106.959 854.707C128.333 891.726 156.233 923.805 189.854 950.003L189.855 950.004C224.7 977.151 264.157 996.758 307.08 1008.26C350.003 1019.76 393.978 1022.51 437.728 1016.42Z" fill="#F1F2F2" stroke="black" stroke-width="31.61"/>
<path d="M430.518 925.406C297.941 947.807 172.307 858.492 149.906 725.915C127.505 593.339 216.819 467.704 349.396 445.303C481.973 422.902 607.607 512.217 630.008 644.793C652.409 777.37 563.095 903.004 430.518 925.406Z" fill="#58C5B7" stroke="#40B4A4" stroke-width="7.36365"/>
<mask id="mask0_303_244" style="mask-type:alpha" maskUnits="userSpaceOnUse" x="142" y="438" width="495" height="495">
<path d="M430.524 925.406C297.947 947.807 172.313 858.492 149.912 725.915C127.51 593.339 216.825 467.704 349.402 445.303C481.979 422.902 607.613 512.217 630.014 644.793C652.415 777.37 563.101 903.004 430.524 925.406Z" fill="#58C5B7" stroke="black" stroke-width="6.95054"/>
</mask>
<g mask="url(#mask0_303_244)">
<g style="mix-blend-mode:multiply" opacity="0.3">
<circle cx="171.551" cy="1025.78" r="375.649" transform="rotate(-75 171.551 1025.78)" fill="#6BD3C7"/>
</g>
</g>
<path d="M374.191 620.937L450.911 615.088C468.613 613.74 486.123 619.474 499.592 631.035C513.062 642.595 521.391 659.036 522.74 676.738C524.088 694.44 518.353 711.95 506.793 725.42C495.232 738.89 478.791 747.219 461.089 748.567C455.537 748.992 450.379 751.6 446.752 755.826C443.124 760.052 441.327 765.547 441.751 771.099C442.176 776.652 444.784 781.809 449.01 785.437C453.236 789.065 458.731 790.862 464.283 790.438C493.091 788.241 519.839 774.693 538.655 752.772C557.472 730.85 566.807 702.352 564.609 673.552C562.412 644.744 548.865 617.996 526.943 599.179C505.022 580.363 476.523 571.028 447.723 573.226L446.737 573.299L446.664 572.313L444.156 539.436C444.009 537.457 443.281 535.575 442.058 534.008C440.835 532.449 439.183 531.284 437.297 530.671C435.412 530.05 433.392 530.011 431.485 530.541C429.578 531.078 427.872 532.164 426.583 533.667L365.839 604.436C364.543 605.938 363.73 607.79 363.493 609.755C363.256 611.72 363.604 613.719 364.503 615.479C365.395 617.246 366.801 618.707 368.523 619.675C370.252 620.644 372.227 621.077 374.2 620.923L374.191 620.937Z" fill="url(#paint0_linear_303_244)" stroke="url(#paint1_linear_303_244)" stroke-width="1.75034"/>
<path d="M406.292 752.749L329.573 758.598C311.871 759.947 294.361 754.212 280.891 742.652C267.422 731.091 259.093 714.65 257.744 696.948C256.396 679.246 262.13 661.736 273.691 648.266C285.251 634.797 301.692 626.468 319.394 625.119C324.947 624.695 330.104 622.086 333.732 617.86C337.36 613.634 339.157 608.14 338.732 602.594C338.307 597.042 335.699 591.884 331.473 588.256C327.247 584.629 321.752 582.832 316.2 583.256C287.392 585.453 260.644 599.001 241.828 620.922C223.019 642.844 213.676 671.342 215.874 700.142C218.071 728.949 231.618 755.698 253.54 774.514C275.461 793.33 303.96 802.666 332.76 800.468L333.746 800.394L333.82 801.381L336.328 834.257C336.474 836.23 337.21 838.112 338.433 839.672C339.656 841.231 341.309 842.388 343.195 843.002C344.44 843.417 345.752 843.571 347.06 843.47C348.368 843.369 349.649 843.018 350.822 842.426C351.995 841.834 353.044 841.019 353.9 840.019L414.645 769.251C415.94 767.749 416.754 765.896 416.991 763.931C417.228 761.967 416.88 759.968 415.981 758.207C415.089 756.44 413.683 754.98 411.961 754.012C410.232 753.043 408.257 752.609 406.284 752.763L406.292 752.749Z" fill="url(#paint2_linear_303_244)" stroke="url(#paint3_linear_303_244)" stroke-width="1.75034"/>
<path d="M847.866 649.867L846.223 650.145C786.689 660.204 746.577 716.628 756.636 776.162C766.695 835.697 823.119 875.809 882.653 865.749L884.296 865.472C943.83 855.412 983.943 798.989 973.883 739.454C963.824 679.92 907.4 639.808 847.866 649.867Z" fill="#58C5B7"/>
<mask id="mask1_303_244" style="mask-type:alpha" maskUnits="userSpaceOnUse" x="755" y="648" width="221" height="220">
<path d="M847.866 649.867L846.223 650.145C786.689 660.204 746.577 716.628 756.636 776.162C766.695 835.697 823.119 875.809 882.653 865.749L884.296 865.472C943.83 855.412 983.943 798.989 973.883 739.454C963.824 679.92 907.4 639.808 847.866 649.867Z" fill="#58C5B7"/>
</mask>
<g mask="url(#mask1_303_244)">
<g style="mix-blend-mode:multiply" opacity="0.3">
<ellipse cx="703.024" cy="1147.52" rx="409.389" ry="409.389" transform="rotate(-75 703.024 1147.52)" fill="#6BD3C7"/>
</g>
</g>
<path d="M848.489 653.556L846.846 653.833C789.349 663.549 750.61 718.042 760.325 775.539C770.04 833.036 824.533 871.776 882.03 862.06L883.673 861.783C941.17 852.068 979.909 797.575 970.194 740.078C960.479 682.58 905.986 643.841 848.489 653.556Z" fill="#58C5B7" stroke="#40B4A4" stroke-width="7.48232"/>
<mask id="mask2_303_244" style="mask-type:alpha" maskUnits="userSpaceOnUse" x="755" y="648" width="221" height="220">
<path d="M847.866 649.867L846.223 650.145C786.689 660.204 746.577 716.628 756.636 776.162C766.695 835.697 823.119 875.809 882.653 865.749L884.296 865.472C943.83 855.412 983.943 798.989 973.883 739.454C963.824 679.92 907.4 639.808 847.866 649.867Z" fill="#58C5B7"/>
</mask>
<g mask="url(#mask2_303_244)">
<g style="mix-blend-mode:multiply" opacity="0.3">
<ellipse cx="703.024" cy="1147.52" rx="409.389" ry="409.389" transform="rotate(-75 703.024 1147.52)" fill="#6BD3C7"/>
</g>
</g>
<path d="M865.504 686.032C851.308 686.032 837.43 690.234 825.62 698.123C813.819 706.012 804.611 717.213 799.183 730.333C793.746 743.444 792.324 757.884 795.094 771.808C797.864 785.733 804.695 798.526 814.737 808.558C824.778 818.599 837.561 825.43 851.486 828.2C865.411 830.97 879.841 829.548 892.961 824.12C906.071 818.692 917.292 809.484 925.171 797.683C933.06 785.883 937.271 772.005 937.271 757.809C937.271 748.385 935.418 739.055 931.815 730.343C928.213 721.63 922.925 713.723 916.262 707.06C909.599 700.397 901.682 695.11 892.979 691.497C884.267 687.895 874.937 686.032 865.513 686.032L865.504 686.032ZM905.959 753.158L873.402 753.158C872.869 753.158 872.364 753.364 871.989 753.738C871.615 754.112 871.409 754.618 871.409 755.151C871.409 755.684 871.624 756.19 871.989 756.564C872.364 756.938 872.869 757.144 873.402 757.144L885.493 757.144C890.724 757.144 895.749 759.138 899.558 762.722C903.367 766.306 905.66 771.209 905.968 776.431L905.968 778.883C905.669 783.908 903.535 788.644 899.97 792.2C896.405 795.756 891.66 797.871 886.635 798.151C881.609 798.432 876.659 796.851 872.719 793.716C868.779 790.581 866.131 786.108 865.28 781.148C865.28 781.073 865.251 780.998 865.195 780.942C865.139 780.886 865.064 780.858 864.989 780.858C864.915 780.858 864.84 780.886 864.784 780.942C864.727 780.998 864.699 781.073 864.699 781.148C863.876 785.911 861.396 790.234 857.699 793.351C854.003 796.467 849.315 798.17 844.486 798.17L825.049 798.17L825.049 762.469L857.793 762.469C857.933 762.488 858.064 762.488 858.205 762.469C858.738 762.413 859.216 762.151 859.552 761.73C859.889 761.318 860.039 760.785 859.983 760.261C859.927 759.727 859.665 759.24 859.244 758.913C858.822 758.585 858.298 758.426 857.774 758.482L845.712 758.482C843.017 758.482 840.35 757.958 837.86 756.92C835.371 755.89 833.106 754.374 831.207 752.475C829.298 750.566 827.791 748.31 826.762 745.821C825.732 743.332 825.208 740.665 825.208 737.97C825.208 732.533 827.37 727.32 831.216 723.474C835.062 719.628 840.275 717.466 845.712 717.466L905.968 717.466L905.968 753.158L905.959 753.158Z" fill="url(#paint4_linear_303_244)"/>
<path d="M381.135 106.138L379.493 106.415C321.996 116.131 283.256 170.624 292.971 228.121C302.687 285.618 357.18 324.358 414.677 314.642L416.319 314.365C473.816 304.65 512.556 250.157 502.841 192.66C493.126 135.162 438.633 96.4227 381.135 106.138Z" fill="#58C5B7" stroke="#40B4A4" stroke-width="7.48232"/>
<mask id="mask3_303_244" style="mask-type:alpha" maskUnits="userSpaceOnUse" x="287" y="100" width="222" height="220">
<path d="M380.512 102.448L378.87 102.726C319.335 112.785 279.223 169.209 289.282 228.743C299.342 288.278 355.766 328.39 415.3 318.33L416.942 318.053C476.477 307.993 516.589 251.57 506.53 192.035C496.47 132.501 440.047 92.3886 380.512 102.448Z" fill="#58C5B7"/>
</mask>
<g mask="url(#mask3_303_244)">
<g style="mix-blend-mode:multiply" opacity="0.3">
<ellipse cx="235.668" cy="600.099" rx="409.389" ry="409.389" transform="rotate(-75 235.668 600.099)" fill="#6BD3C7"/>
</g>
</g>
<path d="M397.746 138.125C383.55 138.125 369.672 142.326 357.862 150.215C346.062 158.104 336.853 169.306 331.426 182.426C325.989 195.536 324.566 209.976 327.336 223.901C330.106 237.825 336.938 250.618 346.979 260.65C357.02 270.691 369.803 277.522 383.728 280.292C397.653 283.062 412.083 281.64 425.203 276.212C438.323 270.785 449.525 261.576 457.413 249.776C465.302 237.975 469.513 224.097 469.513 209.901C469.513 190.867 461.952 172.609 448.495 159.152C435.038 145.695 416.79 138.134 397.756 138.125L397.746 138.125ZM438.145 250.356L422.704 250.356C417.791 250.356 413.028 248.69 409.173 245.639C405.317 242.589 402.613 238.331 401.48 233.549C401.452 233.418 401.377 233.296 401.274 233.212C401.171 233.128 401.04 233.081 400.909 233.081C400.778 233.081 400.647 233.128 400.544 233.212C400.441 233.296 400.367 233.408 400.339 233.549C399.534 236.993 397.905 240.193 395.585 242.869C393.264 245.546 390.325 247.614 387.031 248.896C384.355 249.935 381.501 250.431 378.628 250.347C373.041 250.197 367.726 247.904 363.777 243.955C359.827 240.006 357.535 234.7 357.366 229.113C357.273 226.24 357.759 223.386 358.817 220.71C358.817 220.663 358.817 220.616 358.817 220.56C360.174 217.238 362.494 214.402 365.48 212.409C368.465 210.425 371.984 209.377 375.577 209.405L397.69 209.405C398.224 209.405 398.729 209.19 399.103 208.825C399.478 208.45 399.683 207.945 399.683 207.412C399.683 206.878 399.478 206.373 399.103 205.999C398.729 205.624 398.224 205.418 397.69 205.418L357.61 205.418C358.648 195.995 362.972 187.245 369.803 180.685C376.635 174.125 385.562 170.167 395.014 169.512C404.465 168.856 413.852 171.542 421.525 177.092C429.199 182.65 434.683 190.717 437.022 199.907C437.593 203.051 437.967 206.233 438.145 209.424L438.145 250.347L438.145 250.356Z" fill="url(#paint5_linear_303_244)"/>
<path d="M613.887 219.718L612.245 219.995C554.748 229.71 516.008 284.203 525.723 341.7C535.438 399.198 589.932 437.937 647.429 428.222L649.071 427.945C706.568 418.229 745.308 363.736 735.593 306.239C725.878 248.742 671.384 210.002 613.887 219.718Z" fill="#58C5B7" stroke="#40B4A4" stroke-width="7.48232"/>
<mask id="mask4_303_244" style="mask-type:alpha" maskUnits="userSpaceOnUse" x="520" y="214" width="221" height="220">
<path d="M613.264 216.029L611.622 216.306C552.087 226.366 511.975 282.789 522.034 342.324C532.094 401.858 588.518 441.97 648.052 431.911L649.694 431.633C709.229 421.574 749.341 365.15 739.282 305.616C729.222 246.081 672.798 205.969 613.264 216.029Z" fill="#58C5B7"/>
</mask>
<g mask="url(#mask4_303_244)">
<g style="mix-blend-mode:multiply" opacity="0.3">
<ellipse cx="468.42" cy="713.679" rx="409.389" ry="409.389" transform="rotate(-75 468.42 713.679)" fill="#6BD3C7"/>
</g>
</g>
<path d="M630.498 251.705C616.302 251.705 602.424 255.907 590.624 263.796C578.823 271.685 569.615 282.886 564.178 296.006C558.741 309.117 557.318 323.556 560.088 337.481C562.858 351.406 569.689 364.199 579.731 374.23C589.772 384.272 602.555 391.112 616.48 393.882C630.405 396.652 644.835 395.23 657.955 389.802C671.075 384.365 682.277 375.166 690.165 363.366C698.054 351.565 702.265 337.687 702.265 323.491C702.265 314.067 700.412 304.728 696.81 296.025C693.207 287.313 687.919 279.405 681.256 272.742C674.594 266.079 666.677 260.792 657.974 257.18C649.271 253.577 639.931 251.714 630.508 251.714L630.498 251.705ZM670.888 318.99L648.522 318.99C647.989 318.98 647.455 319.158 647.043 319.495C646.622 319.832 646.342 320.3 646.239 320.833C646.182 321.142 646.201 321.47 646.285 321.769C646.37 322.078 646.519 322.359 646.725 322.602C646.931 322.845 647.184 323.042 647.474 323.173C647.764 323.304 648.073 323.379 648.391 323.369L670.888 323.369L670.888 363.88L653.341 363.88C642.402 363.506 633.09 357.227 630.713 347.139C630.676 347.008 630.601 346.895 630.498 346.821C630.395 346.746 630.264 346.699 630.133 346.699C630.002 346.699 629.871 346.746 629.768 346.821C629.665 346.895 629.591 347.017 629.553 347.139C628.43 351.921 625.716 356.179 621.87 359.22C618.024 362.271 613.261 363.927 608.348 363.937L590.109 363.937C590.184 364.255 590.109 323.379 590.109 323.379L610.996 323.379C611.529 323.388 612.044 323.21 612.456 322.883C612.868 322.546 613.148 322.078 613.251 321.563C613.307 321.254 613.289 320.927 613.205 320.618C613.12 320.309 612.971 320.028 612.765 319.785C612.559 319.542 612.306 319.345 612.016 319.214C611.726 319.083 611.408 319.008 611.09 319.008L590.099 319.008L590.099 282.989L608.872 282.989C613.682 283.12 618.314 284.833 622.048 287.874C625.782 290.906 628.402 295.098 629.506 299.778C629.525 299.918 629.6 300.04 629.703 300.133C629.806 300.227 629.946 300.274 630.087 300.274C630.227 300.274 630.358 300.227 630.47 300.133C630.573 300.04 630.648 299.918 630.667 299.778C631.79 295.005 634.504 290.747 638.35 287.696C642.196 284.646 646.959 282.989 651.872 282.989L670.878 282.989L670.878 319.008L670.888 318.99Z" fill="url(#paint6_linear_303_244)"/>
<path d="M776.805 401.259L775.163 401.537C717.666 411.252 678.926 465.745 688.641 523.242C698.356 580.74 752.849 619.479 810.347 609.764L811.989 609.487C869.486 599.771 908.226 545.278 898.511 487.781C888.795 430.284 834.302 391.544 776.805 401.259Z" fill="#58C5B7" stroke="#40B4A4" stroke-width="7.48232"/>
<mask id="mask5_303_244" style="mask-type:alpha" maskUnits="userSpaceOnUse" x="683" y="396" width="221" height="219">
<path d="M776.182 397.57L774.54 397.848C715.005 407.907 674.893 464.331 684.952 523.865C695.012 583.4 751.435 623.512 810.97 613.452L812.612 613.175C872.147 603.115 912.259 546.692 902.2 487.157C892.14 427.623 835.716 387.511 776.182 397.57Z" fill="#58C5B7"/>
</mask>
<g mask="url(#mask5_303_244)">
<g style="mix-blend-mode:multiply" opacity="0.3">
<ellipse cx="631.338" cy="895.221" rx="409.389" ry="409.389" transform="rotate(-75 631.338 895.221)" fill="#6BD3C7"/>
</g>
</g>
<path d="M793.414 433.247C779.218 433.247 765.34 437.448 753.54 445.337C741.73 453.226 732.531 464.428 727.094 477.548C721.657 490.658 720.234 505.098 723.004 519.023C725.774 532.948 732.606 545.74 742.647 555.772C752.688 565.813 765.471 572.645 779.396 575.415C793.321 578.185 807.751 576.762 820.871 571.334C833.982 565.907 845.193 556.698 853.081 544.898C860.97 533.097 865.181 519.219 865.181 505.023C865.181 485.989 857.62 467.731 844.163 454.274C830.706 440.817 812.449 433.256 793.424 433.247L793.414 433.247ZM817.371 549.053L781.501 549.053L781.501 518.545C781.501 516.533 780.697 514.615 779.274 513.193C777.852 511.77 775.933 510.975 773.921 510.965L762.037 510.965L762.037 480.486L780.472 480.486C786.686 480.486 792.806 482.068 798.243 485.09L802.501 487.757C807.115 491.182 810.858 495.637 813.441 500.774C816.023 505.912 817.362 511.574 817.362 517.32L817.362 549.053L817.371 549.053ZM811.756 487.29C809.164 487.29 806.619 486.531 804.466 485.09C802.304 483.649 800.62 481.609 799.628 479.213C798.636 476.818 798.365 474.179 798.87 471.633C799.375 469.088 800.62 466.749 802.454 464.914C804.288 463.08 806.628 461.826 809.173 461.321C811.719 460.816 814.358 461.078 816.753 462.069C819.149 463.061 821.198 464.746 822.64 466.908C824.081 469.069 824.848 471.605 824.848 474.198C824.829 477.669 823.435 480.982 820.983 483.434C818.522 485.876 815.191 487.252 811.728 487.243L811.765 487.299L811.756 487.29Z" fill="url(#paint7_linear_303_244)"/>
<defs>
<linearGradient id="paint0_linear_303_244" x1="565.692" y1="628.906" x2="470.252" y2="724.346" gradientUnits="userSpaceOnUse">
<stop stop-color="white"/>
<stop offset="0.55" stop-color="white"/>
<stop offset="0.58" stop-color="#B1F9F0"/>
<stop offset="0.68" stop-color="white"/>
<stop offset="1" stop-color="white"/>
</linearGradient>
<linearGradient id="paint1_linear_303_244" x1="454.764" y1="587.751" x2="465.583" y2="729.678" gradientUnits="userSpaceOnUse">
<stop stop-color="white"/>
<stop offset="0.55" stop-color="white"/>
<stop offset="0.58" stop-color="#6BD3C7"/>
<stop offset="0.68" stop-color="white"/>
<stop offset="1" stop-color="white"/>
</linearGradient>
<linearGradient id="paint2_linear_303_244" x1="425.04" y1="675.03" x2="320.181" y2="779.889" gradientUnits="userSpaceOnUse">
<stop stop-color="white"/>
<stop offset="0.55" stop-color="white"/>
<stop offset="0.58" stop-color="#B1F9F0"/>
<stop offset="0.68" stop-color="white"/>
<stop offset="1" stop-color="white"/>
</linearGradient>
<linearGradient id="paint3_linear_303_244" x1="309.365" y1="637.972" x2="320.181" y2="779.889" gradientUnits="userSpaceOnUse">
<stop stop-color="white"/>
<stop offset="0.55" stop-color="white"/>
<stop offset="0.58" stop-color="#6BD3C7"/>
<stop offset="0.68" stop-color="white"/>
<stop offset="1" stop-color="white"/>
</linearGradient>
<linearGradient id="paint4_linear_303_244" x1="923.955" y1="758.15" x2="862.22" y2="799.891" gradientUnits="userSpaceOnUse">
<stop stop-color="white"/>
<stop offset="0.55" stop-color="white"/>
<stop offset="0.58" stop-color="#6BD3C7"/>
<stop offset="0.68" stop-color="white"/>
<stop offset="1" stop-color="white"/>
</linearGradient>
<linearGradient id="paint5_linear_303_244" x1="457.341" y1="200.179" x2="390.991" y2="254.817" gradientUnits="userSpaceOnUse">
<stop stop-color="white"/>
<stop offset="0.55" stop-color="white"/>
<stop offset="0.58" stop-color="#6BD3C7"/>
<stop offset="0.68" stop-color="white"/>
<stop offset="1" stop-color="white"/>
</linearGradient>
<linearGradient id="paint6_linear_303_244" x1="690.681" y1="307.714" x2="624.249" y2="361.185" gradientUnits="userSpaceOnUse">
<stop stop-color="white"/>
<stop offset="0.55" stop-color="white"/>
<stop offset="0.58" stop-color="#6BD3C7"/>
<stop offset="0.68" stop-color="white"/>
<stop offset="1" stop-color="white"/>
</linearGradient>
<linearGradient id="paint7_linear_303_244" x1="848.197" y1="507.482" x2="789.962" y2="546.856" gradientUnits="userSpaceOnUse">
<stop stop-color="white"/>
<stop offset="0.55" stop-color="white"/>
<stop offset="0.58" stop-color="#6BD3C7"/>
<stop offset="0.68" stop-color="white"/>
<stop offset="1" stop-color="white"/>
</linearGradient>
</defs>
</svg>
