<svg width="1081" height="1046" viewBox="0 0 1081 1046" fill="none" xmlns="http://www.w3.org/2000/svg">
<path d="M643.141 1016.42L643.14 1016.42C600.917 1010.54 560.71 996.705 523.685 975.329C486.659 953.952 454.576 926.048 428.374 892.421L428.373 892.421C410.846 869.924 396.462 845.506 385.372 819.473C366.008 873.875 321.131 918.217 261.229 934.268C164.464 960.196 64.6804 902.585 38.7523 805.82L37.9321 802.759C15.7606 720.014 54.6765 635.104 126.892 596C122.046 585.943 118.069 575.302 115.08 564.149L114.671 562.623C88.7431 465.858 146.353 366.074 243.118 340.145C251.364 337.936 259.634 336.334 267.883 335.311C265.012 252.708 319.23 175.856 402.424 153.564C438.931 143.782 475.881 145.911 509.109 157.524C527.474 100.95 573.211 54.3992 634.916 37.8654C731.681 11.9373 831.465 69.5476 857.393 166.313L857.802 167.839C879.407 248.469 843.009 331.196 774.287 371.543C801.835 378.972 828.294 389.968 853.306 404.403L853.308 404.404C890.333 425.781 922.417 453.685 948.618 487.312L948.619 487.312C975.771 522.162 995.381 561.626 1006.88 604.555C1018.39 647.484 1021.14 691.465 1015.05 735.222L1015.05 735.224C1009.17 777.436 995.335 817.652 973.958 854.678C952.582 891.703 924.678 923.787 891.051 949.989L891.05 949.989C856.2 977.141 816.737 996.751 773.808 1008.25C730.879 1019.76 686.897 1022.51 643.141 1016.42Z" fill="#F1F2F2" stroke="black" stroke-width="31.6141"/>
<path d="M650.348 925.388C782.944 947.792 908.597 858.464 931.002 725.867C953.407 593.271 864.078 467.618 731.482 445.213C598.885 422.808 473.232 512.137 450.827 644.733C428.423 777.33 517.751 902.983 650.348 925.388Z" fill="#FF645D" stroke="#C24A45" stroke-width="7.36881"/>
<mask id="mask0_306_93" style="mask-type:alpha" maskUnits="userSpaceOnUse" x="443" y="438" width="495" height="495">
<path d="M650.34 925.388C782.936 947.792 908.59 858.464 930.994 725.867C953.399 593.271 864.07 467.618 731.474 445.213C598.877 422.808 473.224 512.137 450.82 644.733C428.415 777.33 517.743 902.983 650.34 925.388Z" fill="#58C5B7" stroke="black" stroke-width="6.95541"/>
</mask>
<g mask="url(#mask0_306_93)">
<g style="mix-blend-mode:multiply" opacity="0.3">
<circle r="375.706" transform="matrix(-0.258819 -0.965926 -0.965926 0.258819 909.357 1025.78)" fill="#FF645D"/>
</g>
</g>
<path d="M714.955 618.755L638.362 612.915C620.69 611.569 603.209 617.294 589.761 628.836C576.314 640.377 567.999 656.791 566.653 674.464C565.307 692.136 571.031 709.617 582.573 723.065C594.114 736.512 610.528 744.827 628.201 746.173C633.744 746.597 638.893 749.202 642.515 753.421C646.137 757.639 647.93 763.125 647.507 768.668C647.083 774.212 644.479 779.361 640.26 782.982C636.041 786.604 630.555 788.398 625.012 787.974C596.252 785.781 569.548 772.256 550.763 750.371C531.978 728.486 522.658 700.034 524.852 671.282C527.046 642.522 540.571 615.818 562.456 597.033C584.341 578.248 612.792 568.928 641.545 571.122L642.529 571.196L642.603 570.211L645.106 537.389C645.252 535.413 645.98 533.534 647.2 531.97C648.421 530.413 650.071 529.25 651.953 528.638C653.835 528.018 655.852 527.979 657.756 528.508C659.66 529.045 661.363 530.129 662.649 531.629L723.293 602.281C724.587 603.78 725.399 605.629 725.635 607.591C725.872 609.553 725.525 611.548 724.627 613.306C723.737 615.07 722.333 616.528 720.614 617.495C718.888 618.462 716.916 618.895 714.946 618.741L714.955 618.755Z" fill="url(#paint0_linear_306_93)" stroke="url(#paint1_linear_306_93)" stroke-width="1.57298"/>
<path d="M682.903 750.349L759.496 756.188C777.168 757.534 794.65 751.809 808.097 740.268C821.544 728.727 829.86 712.313 831.206 694.64C832.552 676.967 826.827 659.486 815.285 646.039C803.744 632.592 787.33 624.276 769.658 622.93C764.114 622.506 758.965 619.902 755.344 615.683C751.722 611.464 749.928 605.979 750.352 600.442C750.776 594.899 753.38 589.75 757.599 586.128C761.818 582.506 767.304 580.713 772.847 581.136C801.607 583.33 828.311 596.855 847.096 618.74C865.874 640.626 875.201 669.076 873.007 697.829C870.813 726.588 857.288 753.293 835.403 772.078C813.518 790.863 785.066 800.182 756.314 797.988L755.33 797.915L755.256 798.9L752.753 831.722C752.606 833.691 751.871 835.571 750.65 837.127C749.429 838.684 747.779 839.839 745.896 840.452C744.654 840.867 743.343 841.02 742.038 840.919C740.732 840.818 739.453 840.468 738.282 839.877C737.111 839.285 736.064 838.472 735.209 837.474L674.565 766.823C673.271 765.323 672.459 763.474 672.223 761.512C671.986 759.551 672.333 757.556 673.231 755.798C674.121 754.034 675.526 752.575 677.244 751.609C678.97 750.642 680.942 750.209 682.912 750.363L682.903 750.349Z" fill="url(#paint2_linear_306_93)" stroke="url(#paint3_linear_306_93)" stroke-width="1.57298"/>
<path d="M708.256 101.218L709.899 101.495C769.442 111.556 809.56 167.989 799.499 227.532C789.438 287.075 733.006 327.193 673.463 317.133L671.82 316.855C612.277 306.794 572.159 250.362 582.22 190.819C592.281 131.275 648.713 91.157 708.256 101.218Z" fill="#FF645D"/>
<mask id="mask1_306_93" style="mask-type:alpha" maskUnits="userSpaceOnUse" x="580" y="99" width="222" height="220">
<path d="M708.256 101.218L709.899 101.496C769.442 111.557 809.56 167.989 799.499 227.532C789.438 287.076 733.006 327.194 673.463 317.133L671.82 316.855C612.277 306.795 572.159 250.362 582.22 190.819C592.281 131.276 648.713 91.1574 708.256 101.218Z" fill="#58C5B7"/>
</mask>
<g mask="url(#mask1_306_93)">
<g style="mix-blend-mode:multiply" opacity="0.3">
<circle r="409.45" transform="matrix(-0.258819 -0.965926 -0.965926 0.258819 853.122 598.943)" fill="#FF645D"/>
</g>
</g>
<path d="M707.632 104.909L709.275 105.187C766.78 114.903 805.524 169.404 795.808 226.908C786.091 284.413 731.591 323.158 674.087 313.441L672.444 313.164C614.939 303.447 576.195 248.947 585.911 191.442C595.628 133.938 650.128 95.1929 707.632 104.909Z" fill="#FF645D" stroke="#C24A45" stroke-width="7.48756"/>
<mask id="mask2_306_93" style="mask-type:alpha" maskUnits="userSpaceOnUse" x="580" y="99" width="222" height="220">
<path d="M708.256 101.218L709.899 101.496C769.442 111.557 809.56 167.989 799.499 227.532C789.438 287.076 733.006 327.194 673.463 317.133L671.82 316.855C612.277 306.795 572.159 250.362 582.22 190.819C592.281 131.276 648.713 91.1574 708.256 101.218Z" fill="#58C5B7"/>
</mask>
<g mask="url(#mask2_306_93)">
<g style="mix-blend-mode:multiply" opacity="0.3">
<circle r="409.45" transform="matrix(-0.258819 -0.965926 -0.965926 0.258819 853.122 598.943)" fill="#FF645D"/>
</g>
</g>
<path d="M693.222 137.436C679.033 136.925 665.011 140.626 652.923 148.086C640.845 155.547 631.238 166.412 625.341 179.33C619.436 192.238 617.495 206.62 619.762 220.637C622.03 234.655 628.398 247.686 638.074 258.074C647.749 268.472 660.28 275.76 674.098 279.029C687.917 282.298 702.391 281.395 715.699 276.442C728.999 271.489 740.545 262.689 748.845 251.177C757.154 239.666 761.862 225.947 762.373 211.757C762.712 202.339 761.195 192.946 757.907 184.109C754.62 175.271 749.619 167.178 743.199 160.278C736.779 153.379 729.056 147.81 720.488 143.886C711.909 139.972 702.651 137.775 693.232 137.436L693.222 137.436ZM731.243 205.983L698.703 204.812C698.17 204.793 697.657 204.98 697.269 205.341C696.882 205.702 696.658 206.199 696.639 206.732C696.62 207.266 696.817 207.778 697.168 208.166C697.529 208.553 698.026 208.777 698.559 208.796L710.644 209.231C715.873 209.419 720.824 211.592 724.502 215.312C728.18 219.031 730.295 224.015 730.416 229.245L730.328 231.696C729.847 236.708 727.545 241.364 723.853 244.79C720.162 248.216 715.343 250.159 710.31 250.259C705.278 250.359 700.386 248.6 696.561 245.325C692.736 242.05 690.25 237.484 689.577 232.496C689.58 232.421 689.555 232.345 689.501 232.287C689.446 232.229 689.373 232.198 689.298 232.196C689.223 232.193 689.147 232.218 689.089 232.272C689.031 232.326 689 232.4 688.997 232.475C688.003 237.206 685.369 241.438 681.562 244.42C677.756 247.402 673.008 248.936 668.182 248.762L648.755 248.063L650.039 212.38L682.766 213.557C682.906 213.581 683.037 213.586 683.178 213.572C683.713 213.535 684.199 213.29 684.551 212.882C684.903 212.482 685.072 211.954 685.034 211.429C684.998 210.893 684.753 210.398 684.344 210.055C683.935 209.713 683.417 209.535 682.891 209.572L670.834 209.138C668.141 209.041 665.494 208.422 663.043 207.294C660.592 206.175 658.383 204.579 656.553 202.612C654.713 200.635 653.288 198.327 652.349 195.802C651.41 193.276 650.982 190.592 651.079 187.898C651.274 182.464 653.622 177.332 657.605 173.626C661.588 169.92 666.875 167.947 672.309 168.142L732.536 170.309L731.253 205.983L731.243 205.983Z" fill="url(#paint4_linear_306_93)"/>
<path d="M232.632 652.91L234.275 653.187C291.78 662.904 330.524 717.404 320.808 774.909C311.091 832.413 256.591 871.158 199.087 861.442L197.444 861.164C139.939 851.448 101.195 796.947 110.911 739.443C120.628 681.938 175.128 643.193 232.632 652.91Z" fill="#FF645D" stroke="#C24A45" stroke-width="7.48756"/>
<mask id="mask3_306_93" style="mask-type:alpha" maskUnits="userSpaceOnUse" x="105" y="647" width="222" height="220">
<path d="M233.256 649.218L234.899 649.495C294.442 659.556 334.56 715.989 324.499 775.532C314.438 835.075 258.006 875.193 198.463 865.133L196.82 864.855C137.277 854.794 97.1587 798.362 107.22 738.819C117.281 679.275 173.713 639.157 233.256 649.218Z" fill="#58C5B7"/>
</mask>
<g mask="url(#mask3_306_93)">
<g style="mix-blend-mode:multiply" opacity="0.3">
<circle r="409.45" transform="matrix(-0.258819 -0.965926 -0.965926 0.258819 378.122 1146.94)" fill="#FF645D"/>
</g>
</g>
<path d="M216.042 684.899C201.844 684.899 187.964 689.102 176.152 696.992C164.35 704.882 155.14 716.085 149.712 729.207C144.274 742.32 142.851 756.762 145.622 770.688C148.392 784.615 155.224 797.41 165.267 807.443C175.31 817.486 188.095 824.318 202.022 827.089C215.949 829.859 230.381 828.436 243.503 823.008C256.625 817.579 267.828 808.37 275.718 796.567C283.608 784.765 287.82 770.885 287.82 756.687C287.82 737.649 280.258 719.389 266.799 705.93C253.34 692.471 235.089 684.909 216.052 684.899L216.042 684.899ZM256.447 797.148L241.004 797.148C236.09 797.148 231.326 795.482 227.47 792.43C223.614 789.379 220.909 785.121 219.777 780.338C219.749 780.207 219.674 780.085 219.571 780.001C219.468 779.917 219.337 779.87 219.206 779.87C219.075 779.87 218.944 779.917 218.841 780.001C218.738 780.085 218.663 780.198 218.635 780.338C217.83 783.782 216.201 786.983 213.88 789.66C211.559 792.337 208.62 794.405 205.326 795.688C202.649 796.727 199.794 797.223 196.921 797.138C191.333 796.989 186.017 794.696 182.067 790.746C178.118 786.796 175.825 781.489 175.656 775.902C175.562 773.028 176.049 770.174 177.107 767.497C177.107 767.45 177.107 767.403 177.107 767.347C178.464 764.024 180.785 761.189 183.771 759.195C186.756 757.211 190.276 756.162 193.87 756.191L215.986 756.191C216.52 756.191 217.025 755.975 217.399 755.61C217.774 755.236 217.98 754.731 217.98 754.197C217.98 753.664 217.774 753.158 217.399 752.784C217.025 752.409 216.52 752.203 215.986 752.203L175.899 752.203C176.938 742.778 181.262 734.027 188.095 727.466C194.927 720.905 203.856 716.946 213.309 716.291C222.762 715.636 232.15 718.322 239.825 723.872C247.499 729.432 252.984 737.5 255.324 746.691C255.895 749.835 256.269 753.018 256.447 756.209L256.447 797.138L256.447 797.148Z" fill="url(#paint5_linear_306_93)"/>
<path d="M317.632 417.91L319.275 418.187C376.78 427.904 415.524 482.404 405.808 539.909C396.091 597.413 341.591 636.158 284.087 626.442L282.444 626.164C224.939 616.448 186.195 561.947 195.911 504.443C205.628 446.938 260.128 408.193 317.632 417.91Z" fill="#FF645D" stroke="#C24A45" stroke-width="7.48756"/>
<mask id="mask4_306_93" style="mask-type:alpha" maskUnits="userSpaceOnUse" x="190" y="412" width="222" height="220">
<path d="M318.256 414.218L319.899 414.495C379.442 424.556 419.56 480.989 409.499 540.532C399.438 600.075 343.006 640.193 283.463 630.133L281.82 629.855C222.277 619.794 182.159 563.362 192.22 503.819C202.281 444.275 258.713 404.157 318.256 414.218Z" fill="#58C5B7"/>
</mask>
<g mask="url(#mask4_306_93)">
<g style="mix-blend-mode:multiply" opacity="0.3">
<circle r="409.45" transform="matrix(-0.258819 -0.965926 -0.965926 0.258819 463.122 911.944)" fill="#FF645D"/>
</g>
</g>
<path d="M303.557 449.944C289.367 449.447 275.348 453.16 263.277 460.632C251.206 468.104 241.609 478.978 235.715 491.902C229.822 504.816 227.894 519.199 230.176 533.214C232.457 547.23 238.837 560.256 248.522 570.634C258.207 581.023 270.745 588.308 284.566 591.564C298.387 594.82 312.861 593.904 326.165 588.938C339.469 583.963 350.988 575.161 359.286 563.642C367.585 552.123 372.28 538.399 372.777 524.209C373.107 514.79 371.582 505.39 368.285 496.565C364.989 487.731 359.981 479.642 353.555 472.748C347.128 465.855 339.4 460.293 330.828 456.378C322.255 452.472 312.985 450.283 303.566 449.953L303.557 449.944ZM341.571 518.611L319.216 517.828C318.683 517.8 318.144 517.959 317.72 518.282C317.288 518.604 316.991 519.061 316.869 519.591C316.802 519.898 316.809 520.226 316.883 520.528C316.956 520.84 317.096 521.125 317.293 521.376C317.491 521.626 317.736 521.832 318.022 521.973C318.307 522.114 318.613 522.199 318.932 522.201L341.418 522.989L339.999 563.481L322.461 562.867C311.54 562.11 302.453 555.507 300.43 545.341C300.397 545.208 300.326 545.094 300.226 545.015C300.126 544.937 299.996 544.885 299.865 544.881C299.735 544.876 299.602 544.918 299.496 544.99C299.391 545.061 299.312 545.18 299.27 545.3C297.98 550.04 295.119 554.201 291.168 557.107C287.216 560.021 282.397 561.51 277.486 561.347L259.256 560.709C259.32 561.029 260.676 520.17 260.676 520.17L281.554 520.901C282.087 520.929 282.607 520.769 283.03 520.456C283.454 520.134 283.751 519.676 283.872 519.165C283.938 518.859 283.931 518.531 283.858 518.219C283.785 517.907 283.645 517.622 283.447 517.371C283.25 517.121 283.004 516.915 282.719 516.774C282.434 516.633 282.118 516.547 281.8 516.536L260.82 515.801L262.081 479.798L280.845 480.456C285.648 480.755 290.218 482.629 293.844 485.8C297.47 488.961 299.942 493.244 300.882 497.959C300.896 498.1 300.966 498.224 301.066 498.321C301.165 498.419 301.304 498.47 301.444 498.475C301.585 498.48 301.717 498.438 301.833 498.348C301.939 498.258 302.018 498.139 302.042 498C303.331 493.269 306.193 489.108 310.144 486.193C314.095 483.278 318.915 481.79 323.825 481.962L342.823 482.627L341.561 518.63L341.571 518.611Z" fill="url(#paint6_linear_306_93)"/>
<path d="M480.632 219.91L482.275 220.187C539.78 229.904 578.524 284.404 568.808 341.909C559.091 399.413 504.591 438.158 447.087 428.442L445.444 428.164C387.939 418.448 349.195 363.947 358.911 306.443C368.628 248.938 423.128 210.193 480.632 219.91Z" fill="#FF645D" stroke="#C24A45" stroke-width="7.48756"/>
<mask id="mask5_306_93" style="mask-type:alpha" maskUnits="userSpaceOnUse" x="353" y="214" width="222" height="220">
<path d="M481.256 216.218L482.899 216.496C542.442 226.557 582.56 282.989 572.499 342.532C562.438 402.076 506.006 442.194 446.463 432.133L444.82 431.855C385.277 421.795 345.159 365.362 355.22 305.819C365.281 246.276 421.713 206.157 481.256 216.218Z" fill="#58C5B7"/>
</mask>
<g mask="url(#mask5_306_93)">
<g style="mix-blend-mode:multiply" opacity="0.3">
<circle r="409.45" transform="matrix(-0.258819 -0.965926 -0.965926 0.258819 626.122 713.944)" fill="#FF645D"/>
</g>
</g>
<path d="M465.135 251.908C450.939 251.692 436.996 255.683 425.075 263.392C413.145 271.102 403.775 282.164 398.138 295.201C392.501 308.23 390.859 322.648 393.417 336.616C395.975 350.583 402.612 363.48 412.501 373.665C422.39 383.859 435.069 390.886 448.953 393.868C462.836 396.85 477.288 395.647 490.491 390.419C503.685 385.19 515.036 376.152 523.105 364.472C531.174 352.791 535.596 338.976 535.812 324.78C536.102 305.745 528.819 287.371 515.566 273.709C502.313 260.047 484.17 252.207 465.145 251.908L465.135 251.908ZM487.33 368.083L451.459 367.537L451.924 337.029C451.954 335.017 451.179 333.086 449.778 331.642C448.377 330.198 446.471 329.373 444.459 329.333L432.574 329.152L433.038 298.672L451.474 298.952C457.688 299.047 463.784 300.722 469.175 303.827L473.393 306.559C477.954 310.055 481.63 314.566 484.135 319.743C486.639 324.92 487.891 330.603 487.804 336.349L487.321 368.083L487.33 368.083ZM482.655 306.232C480.063 306.193 477.529 305.396 475.399 303.922C473.259 302.448 471.605 300.382 470.65 297.971C469.694 295.56 469.463 292.917 470.007 290.379C470.551 287.842 471.832 285.521 473.694 283.715C475.556 281.908 477.915 280.69 480.468 280.223C483.021 279.757 485.656 280.059 488.037 281.087C490.417 282.116 492.441 283.832 493.849 286.015C495.258 288.199 495.986 290.747 495.947 293.339C495.875 296.811 494.431 300.102 491.941 302.517C489.443 304.922 486.09 306.247 482.628 306.185L482.665 306.242L482.655 306.232Z" fill="url(#paint7_linear_306_93)"/>
<defs>
<linearGradient id="paint0_linear_306_93" x1="523.771" y1="626.71" x2="619.053" y2="721.993" gradientUnits="userSpaceOnUse">
<stop stop-color="white"/>
<stop offset="0.55" stop-color="white"/>
<stop offset="0.58" stop-color="#F4DAD9"/>
<stop offset="0.68" stop-color="white"/>
<stop offset="1" stop-color="white"/>
</linearGradient>
<linearGradient id="paint1_linear_306_93" x1="634.515" y1="585.623" x2="623.715" y2="727.316" gradientUnits="userSpaceOnUse">
<stop stop-color="white"/>
<stop offset="0.55" stop-color="white"/>
<stop offset="0.58" stop-color="#E9A7A4"/>
<stop offset="0.68" stop-color="white"/>
<stop offset="1" stop-color="white"/>
</linearGradient>
<linearGradient id="paint2_linear_306_93" x1="664.187" y1="672.758" x2="768.873" y2="777.444" gradientUnits="userSpaceOnUse">
<stop stop-color="white"/>
<stop offset="0.55" stop-color="white"/>
<stop offset="0.58" stop-color="#F4DAD9"/>
<stop offset="0.68" stop-color="white"/>
<stop offset="1" stop-color="white"/>
</linearGradient>
<linearGradient id="paint3_linear_306_93" x1="779.671" y1="635.762" x2="768.873" y2="777.444" gradientUnits="userSpaceOnUse">
<stop stop-color="white"/>
<stop offset="0.55" stop-color="white"/>
<stop offset="0.58" stop-color="#E9A7A4"/>
<stop offset="0.68" stop-color="white"/>
<stop offset="1" stop-color="white"/>
</linearGradient>
<linearGradient id="paint4_linear_306_93" x1="749.051" y1="211.619" x2="685.846" y2="251.12" gradientUnits="userSpaceOnUse">
<stop stop-color="white"/>
<stop offset="0.55" stop-color="white"/>
<stop offset="0.58" stop-color="#E9A7A4"/>
<stop offset="0.68" stop-color="white"/>
<stop offset="1" stop-color="white"/>
</linearGradient>
<linearGradient id="paint5_linear_306_93" x1="275.646" y1="746.963" x2="209.286" y2="801.61" gradientUnits="userSpaceOnUse">
<stop stop-color="white"/>
<stop offset="0.55" stop-color="white"/>
<stop offset="0.58" stop-color="#F3BEBC"/>
<stop offset="0.68" stop-color="white"/>
<stop offset="1" stop-color="white"/>
</linearGradient>
<linearGradient id="paint6_linear_306_93" x1="361.751" y1="508.034" x2="293.476" y2="559.154" gradientUnits="userSpaceOnUse">
<stop stop-color="white"/>
<stop offset="0.55" stop-color="white"/>
<stop offset="0.58" stop-color="#F3BEBC"/>
<stop offset="0.68" stop-color="white"/>
<stop offset="1" stop-color="white"/>
</linearGradient>
<linearGradient id="paint7_linear_306_93" x1="518.79" y1="326.98" x2="459.954" y2="365.469" gradientUnits="userSpaceOnUse">
<stop stop-color="white"/>
<stop offset="0.55" stop-color="white"/>
<stop offset="0.58" stop-color="#E9A7A4"/>
<stop offset="0.68" stop-color="white"/>
<stop offset="1" stop-color="white"/>
</linearGradient>
</defs>
</svg>
