<svg width="210" height="210" viewBox="0 0 210 210" fill="none" xmlns="http://www.w3.org/2000/svg">
<path d="M94.1192 177.992L104.986 187.795L115.852 177.991L126.294 168.57L126.347 168.523L126.398 168.476C127.088 167.842 127.776 167.211 128.461 166.583C145.825 150.647 161.47 136.289 172.704 122.481C184.59 107.87 193.219 91.9055 193.219 72.8488C193.219 41.522 168.769 16.7775 137.392 16.7775C125.623 16.7775 114.391 20.3899 104.984 26.6698C95.5771 20.3901 84.3462 16.7775 72.5778 16.7775C41.2019 16.7775 16.7501 41.5228 16.7501 72.8488C16.7501 91.906 25.3802 107.87 37.2664 122.48C48.4948 136.281 64.1317 150.633 81.4868 166.562C82.1788 167.197 82.8734 167.835 83.5707 168.475L83.6231 168.523L83.676 168.571L94.1192 177.992Z" fill="#FF645D"/>
<path d="M94.1192 177.992L104.986 187.795L115.852 177.991L126.294 168.57L126.347 168.523L126.398 168.476C127.088 167.842 127.776 167.211 128.461 166.583C145.825 150.647 161.47 136.289 172.704 122.481C184.59 107.87 193.219 91.9055 193.219 72.8488C193.219 41.522 168.769 16.7775 137.392 16.7775C125.623 16.7775 114.391 20.3899 104.984 26.6698C95.5771 20.3901 84.3462 16.7775 72.5778 16.7775C41.2019 16.7775 16.7501 41.5228 16.7501 72.8488C16.7501 91.906 25.3802 107.87 37.2664 122.48C48.4948 136.281 64.1317 150.633 81.4868 166.562C82.1788 167.197 82.8734 167.835 83.5707 168.475L83.6231 168.523L83.676 168.571L94.1192 177.992Z" fill="url(#paint0_linear_306_251)" fill-opacity="0.5"/>
<path d="M94.1192 177.992L104.986 187.795L115.852 177.991L126.294 168.57L126.347 168.523L126.398 168.476C127.088 167.842 127.776 167.211 128.461 166.583C145.825 150.647 161.47 136.289 172.704 122.481C184.59 107.87 193.219 91.9055 193.219 72.8488C193.219 41.522 168.769 16.7775 137.392 16.7775C125.623 16.7775 114.391 20.3899 104.984 26.6698C95.5771 20.3901 84.3462 16.7775 72.5778 16.7775C41.2019 16.7775 16.7501 41.5228 16.7501 72.8488C16.7501 91.906 25.3802 107.87 37.2664 122.48C48.4948 136.281 64.1317 150.633 81.4868 166.562C82.1788 167.197 82.8734 167.835 83.5707 168.475L83.6231 168.523L83.676 168.571L94.1192 177.992Z" stroke="black" stroke-width="32.445"/>
<path d="M101.01 170.353L104.986 173.94L108.961 170.353L119.403 160.932L119.422 160.915L119.441 160.897C120.014 160.372 120.584 159.848 121.152 159.327C138.831 143.101 153.975 129.2 164.723 115.988C175.893 102.258 182.932 88.5495 182.932 72.8488C182.932 47.1439 163.028 27.0649 137.392 27.0649C125.227 27.0649 113.701 31.7764 104.984 39.6813C96.2674 31.7766 84.741 27.0649 72.5778 27.0649C46.9428 27.0649 27.0376 47.1448 27.0376 72.8488C27.0376 88.5497 34.0766 102.258 45.2465 115.987C55.9896 129.192 71.1257 143.087 88.7938 159.305C89.3693 159.833 89.9475 160.364 90.5283 160.897L90.5475 160.915L90.5668 160.932L101.01 170.353Z" fill="#FF645D" stroke="white" stroke-width="11.8701"/>
<mask id="mask0_306_251" style="mask-type:alpha" maskUnits="userSpaceOnUse" x="21" y="21" width="168" height="152">
<path d="M119.403 160.932L119.422 160.915L119.441 160.897C120.014 160.371 120.584 159.848 121.152 159.327C138.831 143.1 153.975 129.2 164.723 115.988C175.893 102.258 182.932 88.5495 182.932 72.8488C182.932 47.1439 163.028 27.0649 137.392 27.0649C134.757 27.0649 132.151 27.2864 129.597 27.7133C114.742 30.1974 95.2274 30.1978 80.3721 27.7134C77.8187 27.2864 75.2129 27.0649 72.5778 27.0649C46.9428 27.0649 27.0376 47.1448 27.0376 72.8488C27.0376 88.5497 34.0766 102.258 45.2465 115.987C55.9896 129.192 71.1257 143.087 88.7938 159.305C89.3693 159.833 89.9475 160.364 90.5283 160.897L90.5475 160.915L90.5668 160.932C98.7581 168.322 111.212 168.323 119.403 160.932Z" fill="#FF645D"/>
<path d="M119.403 160.932L119.422 160.915L119.441 160.897C120.014 160.371 120.584 159.848 121.152 159.327C138.831 143.1 153.975 129.2 164.723 115.988C175.893 102.258 182.932 88.5495 182.932 72.8488C182.932 47.1439 163.028 27.0649 137.392 27.0649C134.757 27.0649 132.151 27.2864 129.597 27.7133C114.742 30.1974 95.2274 30.1978 80.3721 27.7134C77.8187 27.2864 75.2129 27.0649 72.5778 27.0649C46.9428 27.0649 27.0376 47.1448 27.0376 72.8488C27.0376 88.5497 34.0766 102.258 45.2465 115.987C55.9896 129.192 71.1257 143.087 88.7938 159.305C89.3693 159.833 89.9475 160.364 90.5283 160.897L90.5475 160.915L90.5668 160.932C98.7581 168.322 111.212 168.323 119.403 160.932Z" fill="url(#paint1_linear_306_251)" fill-opacity="0.1"/>
<path d="M119.403 160.932L119.422 160.915L119.441 160.897C120.014 160.371 120.584 159.848 121.152 159.327C138.831 143.1 153.975 129.2 164.723 115.988C175.893 102.258 182.932 88.5495 182.932 72.8488C182.932 47.1439 163.028 27.0649 137.392 27.0649C134.757 27.0649 132.151 27.2864 129.597 27.7133C114.742 30.1974 95.2274 30.1978 80.3721 27.7134C77.8187 27.2864 75.2129 27.0649 72.5778 27.0649C46.9428 27.0649 27.0376 47.1448 27.0376 72.8488C27.0376 88.5497 34.0766 102.258 45.2465 115.987C55.9896 129.192 71.1257 143.087 88.7938 159.305C89.3693 159.833 89.9475 160.364 90.5283 160.897L90.5475 160.915L90.5668 160.932C98.7581 168.322 111.212 168.323 119.403 160.932Z" stroke="white" stroke-width="11.8701"/>
</mask>
<g mask="url(#mask0_306_251)">
<g style="mix-blend-mode:multiply" opacity="0.3">
<circle r="154.857" transform="matrix(-0.258819 -0.965926 -0.965926 0.258819 17.7465 209.192)" fill="#FF645D"/>
<circle r="154.857" transform="matrix(-0.258819 -0.965926 -0.965926 0.258819 17.7465 209.192)" fill="url(#paint2_linear_306_251)" fill-opacity="0.5"/>
</g>
</g>
<defs>
<linearGradient id="paint0_linear_306_251" x1="202.791" y1="51.5818" x2="92.3992" y2="135.86" gradientUnits="userSpaceOnUse">
<stop stop-color="#F36059" stop-opacity="0"/>
<stop offset="0.309402" stop-color="white" stop-opacity="0"/>
<stop offset="0.406272" stop-color="#E4110A" stop-opacity="0.224299"/>
<stop offset="0.502657" stop-color="white" stop-opacity="0.420561"/>
<stop offset="1" stop-color="#EE4C47"/>
<stop offset="1" stop-color="white" stop-opacity="0"/>
</linearGradient>
<linearGradient id="paint1_linear_306_251" x1="202.791" y1="51.5818" x2="92.3992" y2="135.86" gradientUnits="userSpaceOnUse">
<stop stop-color="#F36059" stop-opacity="0"/>
<stop offset="0.309402" stop-color="white" stop-opacity="0"/>
<stop offset="0.406272" stop-color="#E4110A" stop-opacity="0.224299"/>
<stop offset="0.502657" stop-color="white" stop-opacity="0.420561"/>
<stop offset="1" stop-color="#EE4C47"/>
<stop offset="1" stop-color="white" stop-opacity="0"/>
</linearGradient>
<linearGradient id="paint2_linear_306_251" x1="365.182" y1="43.2885" x2="114.117" y2="220.219" gradientUnits="userSpaceOnUse">
<stop stop-color="#F36059" stop-opacity="0"/>
<stop offset="0.309402" stop-color="white" stop-opacity="0"/>
<stop offset="0.406272" stop-color="#E4110A" stop-opacity="0.224299"/>
<stop offset="0.502657" stop-color="white" stop-opacity="0.420561"/>
<stop offset="1" stop-color="#EE4C47"/>
<stop offset="1" stop-color="white" stop-opacity="0"/>
</linearGradient>
</defs>
</svg>
